<svg viewBox="0 0 48 48" xmlns="http://www.w3.org/2000/svg">
    <path d="M24 26.4L13.65 36.75C13.3167 37.0833 12.9167 37.25 12.45 37.25C11.9833 37.25 11.5833 37.0833 11.25 36.75C10.9167 36.4167 10.75 36.0167 10.75 35.55C10.75 35.0833 10.9167 34.6833 11.25 34.35L21.6 24L11.25 13.65C10.9167 13.3167 10.75 12.9167 10.75 12.45C10.75 11.9833 10.9167 11.5833 11.25 11.25C11.5833 10.9167 11.9833 10.75 12.45 10.75C12.9167 10.75 13.3167 10.9167 13.65 11.25L24 21.6L34.35 11.25C34.6833 10.9167 35.0833 10.75 35.55 10.75C36.0167 10.75 36.4167 10.9167 36.75 11.25C37.0833 11.5833 37.25 11.9833 37.25 12.45C37.25 12.9167 37.0833 13.3167 36.75 13.65L26.4 24L36.75 34.35C37.0833 34.6833 37.25 35.0833 37.25 35.55C37.25 36.0167 37.0833 36.4167 36.75 36.75C36.4167 37.0833 36.0167 37.25 35.55 37.25C35.0833 37.25 34.6833 37.0833 34.35 36.75L24 26.4Z"/>
</svg>
