<svg viewBox="0 0 48 48" xmlns="http://www.w3.org/2000/svg">
    <path d="M9.09995 42.3002C8.19995 42.3002 7.40828 41.9585 6.72495 41.2752C6.04162 40.5919 5.69995 39.8002 5.69995 38.9002V9.1002C5.69995 8.16686 6.04162 7.36686 6.72495 6.7002C7.40828 6.03353 8.19995 5.7002 9.09995 5.7002H38.9C39.8333 5.7002 40.6333 6.03353 41.2999 6.7002C41.9666 7.36686 42.2999 8.16686 42.2999 9.1002V38.9002C42.2999 39.8002 41.9666 40.5919 41.2999 41.2752C40.6333 41.9585 39.8333 42.3002 38.9 42.3002H9.09995ZM9.09995 38.9002H38.9V9.1002H9.09995V38.9002ZM9.09995 38.9002V9.1002V38.9002Z"/>
</svg>
