<svg viewBox="0 0 48 48" xmlns="http://www.w3.org/2000/svg">
<path d="M24.0001 42.15C18.9334 42.15 14.6418 40.3917 11.1251 36.875C7.60843 33.3583 5.8501 29.0667 5.8501 24C5.8501 19.6 7.10843 15.8333 9.6251 12.7C12.1418 9.56667 15.5334 7.5 19.8001 6.5C21.3001 6.16667 22.3418 6.36667 22.9251 7.1C23.5084 7.83333 23.5668 8.88333 23.1001 10.25C22.8668 10.9833 22.6834 11.725 22.5501 12.475C22.4168 13.225 22.3501 13.9667 22.3501 14.7C22.3501 17.7667 23.4168 20.3583 25.5501 22.475C27.6834 24.5917 30.2668 25.65 33.3001 25.65C34.0668 25.65 34.8168 25.6 35.5501 25.5C36.2834 25.4 37.0001 25.25 37.7001 25.05C39.2334 24.5833 40.3418 24.6667 41.0251 25.3C41.7084 25.9333 41.8501 27.0167 41.4501 28.55C40.4501 32.4833 38.4001 35.7333 35.3001 38.3C32.2001 40.8667 28.4334 42.15 24.0001 42.15V42.15ZM24.0001 38.7C27.4668 38.7 30.5001 37.6417 33.1001 35.525C35.7001 33.4083 37.3501 30.9167 38.0501 28.05C37.2834 28.3833 36.4501 28.6333 35.5501 28.8C34.6501 28.9667 33.7501 29.05 32.8501 29.05C29.0501 28.9167 25.8168 27.525 23.1501 24.875C20.4834 22.225 19.0834 18.9833 18.9501 15.15C18.9501 14.4167 19.0251 13.6167 19.1751 12.75C19.3251 11.8833 19.6168 10.9 20.0501 9.8C16.9501 10.7333 14.3834 12.525 12.3501 15.175C10.3168 17.825 9.3001 20.7667 9.3001 24C9.3001 28.1 10.7251 31.575 13.5751 34.425C16.4251 37.275 19.9001 38.7 24.0001 38.7V38.7Z"/>
</svg>
