<svg viewBox="0 0 48 48" xmlns="http://www.w3.org/2000/svg">
    <path d="M23.9999 30.3496C23.7666 30.3496 23.5583 30.308 23.3749 30.2246C23.1916 30.1413 22.9999 30.0163 22.7999 29.8496L12.8999 19.9496C12.5999 19.6163 12.4583 19.1996 12.4749 18.6996C12.4916 18.1996 12.6499 17.7996 12.9499 17.4996C13.3166 17.133 13.7249 16.9746 14.1749 17.0246C14.6249 17.0746 15.0166 17.2496 15.3499 17.5496L23.9999 26.1996L32.65 17.5496C32.95 17.2496 33.3583 17.083 33.8749 17.0496C34.3916 17.0163 34.7999 17.183 35.0999 17.5496C35.4666 17.8496 35.6249 18.2413 35.5749 18.7246C35.5249 19.208 35.3499 19.633 35.0499 19.9996L25.1999 29.8496C24.9999 30.0163 24.8083 30.1413 24.6249 30.2246C24.4416 30.308 24.2333 30.3496 23.9999 30.3496V30.3496Z"/>
</svg>
