<svg viewBox="0 0 48 48" xmlns="http://www.w3.org/2000/svg">
    <path fill="#7A7B7C" d="M32.0998 31.9502C31.7665 31.6169 31.5998 31.2085 31.5998 30.7252C31.5998 30.2419 31.7665 29.8335 32.0998 29.5002L35.8998 25.7002H20.2998C19.8331 25.7002 19.4331 25.5335 19.0998 25.2002C18.7665 24.8669 18.5998 24.4669 18.5998 24.0002C18.5998 23.5002 18.7665 23.0919 19.0998 22.7752C19.4331 22.4585 19.8331 22.3002 20.2998 22.3002H35.7998L31.9498 18.4502C31.6498 18.1502 31.4998 17.7669 31.4998 17.3002C31.4998 16.8335 31.6665 16.4169 31.9998 16.0502C32.3331 15.7169 32.7415 15.5502 33.2248 15.5502C33.7081 15.5502 34.1165 15.7169 34.4498 16.0502L41.2498 22.8502C41.4165 23.0502 41.5415 23.2502 41.6248 23.4502C41.7081 23.6502 41.7498 23.8502 41.7498 24.0502C41.7498 24.2835 41.7081 24.4919 41.6248 24.6752C41.5415 24.8585 41.4165 25.0502 41.2498 25.2502L34.4998 32.0002C34.1998 32.3002 33.8165 32.4502 33.3498 32.4502C32.8831 32.4502 32.4665 32.2835 32.0998 31.9502V31.9502ZM8.9998 42.3002C8.06647 42.3002 7.25814 41.9585 6.5748 41.2752C5.89147 40.5919 5.5498 39.8002 5.5498 38.9002V9.1002C5.5498 8.16686 5.89147 7.36686 6.5748 6.7002C7.25814 6.03353 8.06647 5.7002 8.9998 5.7002H21.8998C22.3998 5.7002 22.8081 5.86686 23.1248 6.2002C23.4415 6.53353 23.5998 6.93353 23.5998 7.4002C23.5998 7.9002 23.4415 8.30853 23.1248 8.6252C22.8081 8.94186 22.3998 9.1002 21.8998 9.1002H8.9998V38.9002H21.8998C22.3998 38.9002 22.8081 39.0669 23.1248 39.4002C23.4415 39.7335 23.5998 40.1335 23.5998 40.6002C23.5998 41.1002 23.4415 41.5085 23.1248 41.8252C22.8081 42.1419 22.3998 42.3002 21.8998 42.3002H8.9998Z"/>
</svg>
