<svg viewBox="0 0 48 48" xmlns="http://www.w3.org/2000/svg">
    <path d="M37.4499 33.3496L34.8499 30.6996C35.5166 29.5663 36.0249 28.1163 36.3749 26.3496C36.7249 24.5829 36.8999 23.0663 36.8999 21.7996V12.0996L23.9999 7.29961L14.8499 10.6996L12.1999 8.04961L22.7999 4.04961C23.1999 3.91628 23.5999 3.84961 23.9999 3.84961C24.3999 3.84961 24.7999 3.91628 25.1999 4.04961L38.0999 8.84961C38.7666 9.08294 39.2999 9.49961 39.6999 10.0996C40.0999 10.6996 40.2999 11.3663 40.2999 12.0996V21.7996C40.2999 23.8329 40.0499 25.8246 39.5499 27.7746C39.0499 29.7246 38.3499 31.5829 37.4499 33.3496ZM39.4499 44.2996L33.5999 38.5496C32.2332 39.9163 30.8332 41.0663 29.3999 41.9996C27.9666 42.9329 26.3832 43.6329 24.6499 44.0996C24.5832 44.1329 24.4916 44.1496 24.3749 44.1496H23.6249C23.5082 44.1496 23.4166 44.1329 23.3499 44.0996C18.6499 42.6663 14.8666 39.8579 11.9999 35.6746C9.13324 31.4913 7.6999 26.8663 7.6999 21.7996V12.5496L3.5999 8.44961C3.2999 8.14961 3.1499 7.79128 3.1499 7.37461C3.1499 6.95794 3.2999 6.58294 3.5999 6.24961C3.93324 5.94961 4.31657 5.79961 4.7499 5.79961C5.18324 5.79961 5.5499 5.94961 5.8499 6.24961L41.6999 42.0496C41.9999 42.3496 42.1416 42.7163 42.1249 43.1496C42.1082 43.5829 41.9499 43.9663 41.6499 44.2996C41.3166 44.5996 40.9416 44.7496 40.5249 44.7496C40.1082 44.7496 39.7499 44.5996 39.4499 44.2996ZM23.9999 40.7496C25.3999 40.2496 26.7082 39.5996 27.9249 38.7996C29.1416 37.9996 30.2332 37.0996 31.1999 36.0996L11.0999 15.9496V21.7996C11.0999 26.0663 12.3166 29.9663 14.7499 33.4996C17.1832 37.0329 20.2666 39.4496 23.9999 40.7496Z"/>
</svg>
