<svg viewBox="0 0 48 48" xmlns="http://www.w3.org/2000/svg">
    <path d="M24.0002 44.1496C23.8335 44.1496 23.6835 44.1413 23.5502 44.1246C23.4169 44.1079 23.3002 44.0829 23.2002 44.0496C18.6669 42.6829 14.9502 39.8913 12.0502 35.6746C9.1502 31.4579 7.7002 26.8496 7.7002 21.8496V12.1496C7.7002 11.4163 7.90853 10.7496 8.3252 10.1496C8.74186 9.54961 9.26686 9.13294 9.9002 8.89961L22.8002 4.04961C23.2335 3.91628 23.6335 3.84961 24.0002 3.84961C24.3669 3.84961 24.7669 3.91628 25.2002 4.04961L38.1002 8.89961C38.7335 9.13294 39.2585 9.54961 39.6752 10.1496C40.0919 10.7496 40.3002 11.4163 40.3002 12.1496V21.8496C40.3002 26.8496 38.8502 31.4579 35.9502 35.6746C33.0502 39.8913 29.3335 42.6829 24.8002 44.0496C24.8335 44.0163 24.5669 44.0496 24.0002 44.1496ZM24.0002 40.7496C27.8002 39.4496 30.9002 37.0579 33.3002 33.5746C35.7002 30.0913 36.9002 26.1829 36.9002 21.8496V12.1496L24.0002 7.24961L11.1002 12.1496V21.8496C11.1002 26.1829 12.3002 30.0913 14.7002 33.5746C17.1002 37.0579 20.2002 39.4496 24.0002 40.7496Z"/>
</svg>
